#!OML:ASF I:\Actors\actors\Patient Classification 2\Patient 1\Session 1\actor1.ASF
:FULLY-SPECIFIED
:DEGREES
854
root 0.0429787 18.8812 4.98196 20.3612 5.39689 -3.68746
lowerback 26.3064 0.579343 0.110863
upperback 7.31659 0.838646 0.619234
thorax -6.4597 0.404885 0.355819
lowerneck -13.5993 -2.82131 -5.06416
upperneck -0.845154 -3.42113 12.1974
head 2.28037 -1.29903 4.34186
rclavicle -4.96962e-015 1.27222e-014
rhumerus -28.3234 10.4046 -75.0223
rradius 91.2126
rwrist 4.0105
rhand -3.07499 -53.4241
rfingers 7.12502
rthumb 22.642 -82.116
lclavicle -4.96962e-015 1.27222e-014
lhumerus 18.8116 -27.8812 74.9126
lradius 49.974
lwrist -15.2784
lhand -10.804 -30.4613
lfingers 7.12502
lthumb 15.2093 -1.04031
rfemur -15.6938 -3.83103 16.8378
rtibia -2.46493e-014
rfoot -15.5071 -16.2461
rtoes -1.61021
lfemur -36.7003 0.395458 -12.9713
ltibia 31.2255
lfoot -15.2664 5.82348
ltoes -53.7748
855
root 0.0316811 18.8882 4.99028 20.1651 5.22303 -3.55687
lowerback 26.209 0.411717 -0.0929566
upperback 7.30788 0.563538 0.496897
thorax -6.41992 0.275146 0.424087
lowerneck -13.699 -2.52897 -4.62427
upperneck -0.502175 -3.10972 11.8194
head 2.35377 -1.14354 4.17145
rclavicle 3.37934e-015 -4.37326e-015
rhumerus -28.5317 10.8349 -75.3404
rradius 92.9669
rwrist 3.92032
rhand -2.70954 -53.9885
rfingers 7.12502
rthumb 22.9927 -82.6372
lclavicle 3.37934e-015 -4.37326e-015
lhumerus 16.8474 -28.0458 74.4475
lradius 51.3606
lwrist -14.6138
lhand -9.12048 -29.2367
lfingers 7.12502
lthumb 16.8305 0.0539243
rfemur -15.4526 -3.67796 16.6649
rtibia -2.3059e-014
rfoot -15.5853 -16.2382
rtoes -1.35308
lfemur -36.2112 0.375784 -13.0779
ltibia 30.8688
lfoot -15.2371 5.9158
ltoes -53.7253
856
root 0.0209635 18.8932 4.99787 19.9665 5.08572 -3.4321
lowerback 26.1319 0.236843 -0.320964
upperback 7.29487 0.276968 0.413643
thorax -6.39405 0.139828 0.552006
lowerneck -13.7079 -2.22987 -4.15073
upperneck -0.264931 -2.78432 11.3798
head 2.38103 -0.98912 3.97811
rclavicle 1.11319e-014 -5.56597e-015
rhumerus -28.7187 11.3061 -75.5174
rradius 94.7799
rwrist 3.60097
rhand -1.45717 -54.687
rfingers 7.12502
rthumb 24.1939 -83.181
lclavicle 1.11319e-014 -5.56597e-015
lhumerus 14.7711 -28.2455 74.0285
lradius 52.9806
lwrist -13.7773
lhand -5.91733 -26.5086
lfingers 7.12502
lthumb 19.9118 2.49129
rfemur -15.2108 -3.55685 16.5083
rtibia -9.54166e-015
rfoot -15.6463 -16.2166
rtoes -1.13663
lfemur -35.7301 0.285181 -13.1619
ltibia 30.5148
lfoot -15.2396 6.05762
ltoes -53.6673
857
root 0.00940472 18.8988 5.00529 19.6948 4.98409 -3.29281
lowerback 26.1486 0.0706737 -0.548986
upperback 7.29021 -6.97697e-006 0.311245
thorax -6.40364 0.00925619 0.655712
lowerneck -13.6969 -1.98697 -3.7879
upperneck -0.0265209 -2.52718 11.1726
head 2.4209 -0.861175 3.87071
rclavicle 5.56597e-015 3.97569e-015
rhumerus -28.8798 11.7482 -75.6477
rradius 96.5127
rwrist 3.05407
rhand -0.448468 -55.1887
rfingers 7.12502
rthumb 25.1607 -83.5505
lclavicle 5.56597e-015 3.97569e-015
lhumerus 12.6587 -28.6726 73.4877
lradius 54.7826
lwrist -12.8501
lhand -5.17074 -25.7804
lfingers 7.12502
lthumb 20.6294 3.14329
rfemur -14.881 -3.46774 16.3472
rtibia -2.46493e-014
rfoot -15.6491 -16.2321
rtoes -1.3378
lfemur -35.1866 0.276193 -13.2985
ltibia 30.1765
lfoot -15.2187 6.12849
ltoes -53.6859
858
root -0.00360324 18.9057 5.01271 19.388 4.87026 -3.18784
lowerback 26.1791 -0.0609312 -0.702087
upperback 7.285 -0.220106 0.144547
thorax -6.42097 -0.0943414 0.628558
lowerneck -13.5483 -1.67599 -3.0312
upperneck 0.0966834 -2.22095 10.7217
head 2.39306 -0.723314 3.62636
rclavicle 7.15625e-015 -4.37326e-015
rhumerus -29.064 11.9888 -75.8017
rradius 98.1109
rwrist 2.72064
rhand -0.0660508 -55.2837
rfingers 7.12502
rthumb 25.5271 -83.5936
lclavicle 7.15625e-015 -4.37326e-015
lhumerus 10.4494 -29.4344 72.7973
lradius 56.7565
lwrist -12.015
lhand -4.56833 -25.2342
lfingers 7.12502
lthumb 21.2081 3.62562
rfemur -14.5151 -3.3507 16.2178
rtibia 4.85035e-014
rfoot -15.6859 -16.2474
rtoes -1.51636
lfemur -34.6131 0.426304 -13.4428
ltibia 29.8494
lfoot -15.1288 6.05189
ltoes -53.6872
859
root -0.0180631 18.9127 5.0185 19.1554 4.77046 -3.0965
lowerback 26.1234 -0.189027 -0.850712
upperback 7.26111 -0.433071 -0.00790828
thorax -6.41661 -0.194703 0.611889
lowerneck -13.5136 -1.42727 -2.54819
upperneck 0.356098 -1.97751 10.552
head 2.44026 -0.599635 3.51014
rclavicle 5.56597e-015 1.39149e-014
rhumerus -29.1516 12.1547 -75.7708
rradius 99.6103
rwrist 2.89451
rhand -0.315487 -55.1559
rfingers 7.12502
rthumb 25.2882 -83.4998
lclavicle 5.56597e-015 1.39149e-014
lhumerus 8.29815 -30.2824 72.0605
lradius 58.7289
lwrist -11.2891
lhand -4.1122 -24.9068
lfingers 7.12502
lthumb 21.6462 3.90324
rfemur -14.2361 -3.24562 16.1146
rtibia 7.15625e-015
rfoot -15.7701 -16.2146
rtoes -1.35046
lfemur -34.1512 0.639843 -13.5767
ltibia 29.5408
lfoot -15.0127 5.87614
ltoes -53.7208
860
root -0.0319302 18.919 5.02171 18.9652 4.73829 -2.99231
lowerback 26.0349 -0.337444 -1.01211
upperback 7.25164 -0.668257 -0.0911546
thorax -6.3785 -0.306016 0.684582
lowerneck -13.549 -1.22591 -2.33114
upperneck 0.589191 -1.76028 10.531
head 2.499 -0.483087 3.48207
rclavicle 7.55382e-015 7.15625e-015
rhumerus -29.0435 12.3845 -75.4031
rradius 101.072
rwrist 3.25339
rhand -1.30666 -54.6535
rfingers 7.12502
rthumb 24.3382 -83.1282
lclavicle 7.55382e-015 7.15625e-015
lhumerus 6.36655 -31.0505 71.348
lradius 60.7236
lwrist -10.4833
lhand -3.5976 -24.4906
lfingers 7.12502
lthumb 22.1403 4.2616
rfemur -14.0018 -3.21179 16.0211
rtibia 3.97569e-014
rfoot -15.8352 -16.1635
rtoes -1.1422
lfemur -33.7635 0.671172 -13.6593
ltibia 29.2588
lfoot -14.9661 5.80055
ltoes -53.6607
861
root -0.044555 18.923 5.02343 18.8021 4.71197 -2.91335
lowerback 25.9296 -0.458396 -1.09582
upperback 7.2455 -0.849212 -0.180087
thorax -6.33003 -0.39205 0.689233
lowerneck -13.5656 -1.06029 -2.04389
upperneck 0.74158 -1.58912 10.3726
head 2.53112 -0.397212 3.39724
rclavicle 7.55382e-015 -1.19271e-015
rhumerus -28.9323 12.6253 -74.8719
rradius 102.544
rwrist 3.11379
rhand -1.53715 -54.3981
rfingers 7.12502
rthumb 24.1173 -82.9022
lclavicle 7.55382e-015 -1.19271e-015
lhumerus 4.55543 -31.9244 70.6091
lradius 62.8944
lwrist -9.54835
lhand -3.2781 -23.9482
lfingers 7.12502
lthumb 22.447 4.76731
rfemur -13.8111 -3.17838 15.9515
rtibia -3.97569e-014
rfoot -15.8822 -16.1157
rtoes -1.03788
lfemur -33.4087 0.651789 -13.7001
ltibia 28.9983
lfoot -14.9531 5.78426
ltoes -53.5257
862
root -0.0577379 18.9252 5.02554 18.6858 4.68788 -2.86033
lowerback 25.7625 -0.552899 -1.11074
upperback 7.24071 -0.981149 -0.299588
thorax -6.25227 -0.455272 0.60496
lowerneck -13.6394 -0.925165 -1.67786
upperneck 0.910863 -1.47141 10.1662
head 2.58016 -0.337143 3.28179
rclavicle -5.56597e-015 1.07344e-014
rhumerus -28.8544 12.825 -74.3116
rradius 103.982
rwrist 2.63387
rhand -1.301 -54.4131
rfingers 7.12502
rthumb 24.3437 -82.887
lclavicle -5.56597e-015 1.07344e-014
lhumerus 2.83489 -32.8918 69.8382
lradius 65.1356
lwrist -8.51881
lhand -3.18518 -23.41
lfingers 7.12502
lthumb 22.5362 5.29478
rfemur -13.6806 -3.14079 15.9151
rtibia -1.74931e-014
rfoot -15.9257 -16.083
rtoes -0.948183
lfemur -33.1116 0.620667 -13.7067
ltibia 28.7505
lfoot -14.9627 5.80665
ltoes -53.5549
863
root -0.0716893 18.9271 5.02668 18.62 4.67746 -2.8157
lowerback 25.5336 -0.612633 -1.09925
upperback 7.22838 -1.06431 -0.453189
thorax -6.15454 -0.495348 0.452619
lowerneck -13.6497 -0.813287 -1.17456
upperneck 1.01345 -1.4025 9.98287
head 2.60226 -0.303277 3.14776
rclavicle -4.77083e-015 3.18055e-015
rhumerus -28.7727 12.8634 -73.7501
rradius 105.342
rwrist 2.21161
rhand -0.878936 -54.4605
rfingers 7.12502
rthumb 24.7482 -82.8795
lclavicle -4.77083e-015 3.18055e-015
lhumerus 1.19181 -33.9127 69.0469
lradius 67.4284
lwrist -7.38258
lhand -2.98125 -23.0621
lfingers 7.12502
lthumb 22.732 5.61878
rfemur -13.6112 -3.11523 15.9008
rtibia -3.02153e-014
rfoot -15.9528 -16.0793
rtoes -0.821633
lfemur -32.8908 0.576448 -13.6953
ltibia 28.5104
lfoot -14.9635 5.84135
ltoes -53.6885
864
root -0.0863095 18.9289 5.02539 18.6102 4.6653 -2.7444
lowerback 25.2933 -0.614525 -1.12256
upperback 7.17656 -1.08311 -0.613009
thorax -6.09507 -0.504088 0.294526
lowerneck -13.4215 -0.749152 -0.737038
upperneck 0.730391 -1.35746 9.64479
head 2.73055 -0.317301 3.27447
rclavicle 1.35174e-014 -1.43125e-014
rhumerus -28.7806 12.7481 -73.1229
rradius 106.745
rwrist 1.88261
rhand -0.418573 -54.7105
rfingers 7.12502
rthumb 25.1894 -83.0683
lclavicle 1.35174e-014 -1.43125e-014
lhumerus -0.431871 -35.0169 68.2805
lradius 69.8236
lwrist -6.24224
lhand -2.36851 -22.6459
lfingers 7.12502
lthumb 23.3199 5.96167
rfemur -13.6078 -3.10096 15.8628
rtibia -5.64548e-014
rfoot -15.9374 -16.0866
rtoes -0.753645
lfemur -32.7446 0.530169 -13.7101
ltibia 28.2848
lfoot -14.9277 5.88357
ltoes -53.7664
865
root -0.101388 18.9306 5.02406 18.6176 4.67209 -2.61203
lowerback 25.0624 -0.625156 -1.25701
upperback 7.12069 -1.13538 -0.722395
thorax -6.04067 -0.528512 0.26525
lowerneck -13.3485 -0.68427 -0.40175
upperneck 0.741304 -1.31579 9.50795
head 2.70963 -0.300713 3.16432
rclavicle -1.59028e-015 -9.54166e-015
rhumerus -28.6928 12.7463 -72.3601
rradius 108.141
rwrist 1.61938
rhand -0.270495 -54.7506
rfingers 7.12502
rthumb 25.3313 -83.0883
lclavicle -1.59028e-015 -9.54166e-015
lhumerus -2.0957 -35.957 67.6214
lradius 72.2666
lwrist -5.22102
lhand -1.85285 -22.1763
lfingers 7.12502
lthumb 23.8145 6.36767
rfemur -13.6081 -3.12662 15.767
rtibia -5.08889e-014
rfoot -15.9162 -16.0736
rtoes -0.817004
lfemur -32.6328 0.477394 -13.794
ltibia 28.0922
lfoot -14.8827 5.93025
ltoes -53.8828
